<?xml version="1.0" encoding="UTF-8"?><svg id="_이어_2" xmlns="http://www.w3.org/2000/svg" viewBox="0 0 77.18 77.18"><defs><style>.cls-1{fill:#202020;stroke:#cbafe8;stroke-miterlimit:10;}.cls-1,.cls-2,.cls-3,.cls-4{isolation:isolate;}.cls-2{fill:#5a268b;}.cls-3{fill:#41305d;}.cls-4{fill:#cbafe8;}</style></defs><g id="_이어_1-2"><g><circle class="cls-1" cx="38.59" cy="38.59" r="38.09"/><g><path class="cls-3" d="M37.28,69.69s20.6-23.3,14.22-35.17c-5.18-9.65-11.02-20.84-6.09-27.03,0,0-19.53,17.6-10.14,34.6,9.39,17,2.01,27.6,2.01,27.6Z"/><path class="cls-2" d="M37.76,68.87s10.97-18.71,3.88-26.88c-5.77-6.64-12.32-14.36-9.81-19.28,0,0-11.27,14.45-.92,26.13s6.86,20.03,6.86,20.03Z"/><path class="cls-4" d="M37.39,69.67s4.19-14.15-1.83-18.39c-4.9-3.45-10.49-7.47-9.63-11.13,0,0-5.08,11.39,3.66,17.41,8.75,6.02,7.8,12.11,7.8,12.11Z"/></g></g></g></svg>